<svg width="70" height="70" viewBox="0 0 70 70" fill="none" xmlns="http://www.w3.org/2000/svg">
<g clip-path="url(#clip0_6_151)">
<circle cx="35" cy="35" r="35" fill="black"/>
<path fill-rule="evenodd" clip-rule="evenodd" d="M56.9682 49.2348C56.9343 49.2606 56.9005 49.2879 56.865 49.3121C56.8311 49.3378 56.7957 49.362 56.7602 49.3878C56.6941 49.4344 56.6264 49.4795 56.557 49.523C56.549 49.5278 56.5409 49.5326 56.5328 49.5391C56.4764 49.5745 56.42 49.6099 56.3619 49.6437C56.2765 49.6952 56.1926 49.7435 56.1056 49.7918C55.5155 50.1203 54.8947 50.3843 54.2611 50.6177C53.6629 50.8367 53.0567 51.0283 52.4456 51.1989C51.5701 51.4436 50.6833 51.6465 49.7885 51.8235C48.9194 51.9974 48.0471 52.1439 47.1716 52.2711C46.2962 52.3983 45.4174 52.5045 44.5371 52.5963C44.2485 52.6269 43.9599 52.6543 43.6713 52.6816C43.0924 52.7348 42.5136 52.7798 41.9348 52.8185C41.6446 52.8378 41.3544 52.8555 41.0657 52.8716C40.416 52.9086 39.7662 52.936 39.1164 52.9569C38.9987 52.9601 38.881 52.965 38.7617 52.9682C38.6537 52.9714 38.5457 52.9746 38.436 52.9779C38.7021 52.6494 38.9681 52.3226 39.2116 51.9765C39.247 51.933 39.2825 51.8896 39.3164 51.8445C39.8662 51.1071 40.3918 50.3537 40.8948 49.5858C40.9464 49.5826 40.998 49.5809 41.048 49.5777C41.3673 49.56 41.6865 49.5391 42.0057 49.5182C42.2476 49.5021 42.4894 49.4844 42.7313 49.465C44.4226 49.3346 46.1075 49.1479 47.7843 48.8855C48.2729 48.8098 48.7582 48.7261 49.2419 48.6375C50.3737 48.4283 51.4959 48.1771 52.602 47.8616C52.8454 47.7923 53.0873 47.7199 53.3291 47.6442C53.4501 47.6056 53.571 47.567 53.6919 47.5267C53.8741 47.5589 54.0402 47.6346 54.2111 47.6974C54.361 47.7521 54.511 47.81 54.6609 47.8696C55.085 48.037 55.5009 48.2222 55.904 48.4363C56.0637 48.52 56.2201 48.6086 56.3748 48.7019C56.5796 48.8259 56.7795 48.9563 56.9666 49.106C57.0214 49.1495 57.0375 49.1672 57.0165 49.193C57.0069 49.2058 56.9907 49.2187 56.9649 49.238L56.9682 49.2348Z" fill="#F1ECE2"/>
<path fill-rule="evenodd" clip-rule="evenodd" d="M53.6967 47.5251C53.5758 47.5653 53.4565 47.604 53.334 47.6426C53.0921 47.7183 52.8503 47.7907 52.6068 47.86C51.4991 48.1755 50.3786 48.4266 49.2467 48.6359C48.763 48.7261 48.2761 48.8082 47.7892 48.8839C46.1123 49.1463 44.4274 49.333 42.7361 49.4634C42.4943 49.4827 42.2524 49.5004 42.0106 49.5165C41.6913 49.5375 41.3721 49.5584 41.0528 49.5761C41.0012 49.5793 40.9513 49.5809 40.8997 49.5842C41.2463 49.0545 41.5833 48.5184 41.909 47.9743C42.3798 47.1886 42.8296 46.3917 43.2569 45.5835C44.0727 45.6544 44.887 45.7365 45.7012 45.8363C45.7608 45.8427 45.8205 45.8556 45.8818 45.8653C46.2461 45.891 46.6073 45.9458 46.9669 45.9989C47.4296 46.0665 47.8923 46.1406 48.3535 46.2178C48.9758 46.3225 49.5982 46.4384 50.2157 46.572C50.5495 46.6445 50.8816 46.7185 51.2154 46.791C51.2686 46.82 51.325 46.8312 51.3846 46.8377C52.0973 47.0196 52.8083 47.2112 53.5065 47.4414C53.571 47.4623 53.6451 47.4687 53.6951 47.5235L53.6967 47.5251Z" fill="#00BBBB"/>
<path fill-rule="evenodd" clip-rule="evenodd" d="M20.6718 59.1331L20.6697 59.1309L20.6718 59.1331Z" fill="black"/>
<path fill-rule="evenodd" clip-rule="evenodd" d="M20.3939 58.9619C20.41 58.9731 20.4293 58.9812 20.4471 58.9892C20.46 58.9957 20.4729 59.0005 20.4858 59.0069C20.5083 59.0182 20.5293 59.0327 20.5438 59.0536C20.5487 59.0601 20.5535 59.0697 20.5583 59.0794C20.4825 59.0729 20.4164 59.0424 20.3584 58.9941L20.3939 58.9619Z" fill="black"/>
<path fill-rule="evenodd" clip-rule="evenodd" d="M25.5647 56.5374C25.5018 56.547 25.4389 56.5567 25.3776 56.5663C25.1358 56.5985 24.8939 56.6179 24.6505 56.6243C24.5699 56.6259 24.4876 56.6275 24.407 56.6259C24.3248 56.6259 24.2442 56.6227 24.1619 56.6195C24.1265 56.6179 24.0926 56.613 24.0571 56.6098C24.0233 56.6066 23.9878 56.6018 23.9523 56.5985C23.9072 56.5953 23.8733 56.576 23.8395 56.547C23.7427 56.4601 23.6508 56.3699 23.5605 56.2766C24.2281 56.3731 24.8956 56.4601 25.5647 56.539V56.5374Z" fill="#F1ECE2"/>
<path fill-rule="evenodd" clip-rule="evenodd" d="M36.0675 45.2825C35.587 45.2825 35.1066 45.2889 34.6261 45.297C33.8264 46.535 32.9638 47.7295 32.0222 48.8645C31.8239 49.1028 31.6239 49.3378 31.4192 49.5697C30.9032 50.1573 30.3647 50.724 29.8004 51.2649C29.3054 51.7382 28.7943 52.1906 28.2606 52.6156C27.8446 52.9489 27.4141 53.266 26.9675 53.5606C26.1452 54.1048 25.2826 54.5733 24.3539 54.9146C23.8831 55.0868 23.4027 55.2269 22.9061 55.309C22.8786 55.3138 22.8528 55.3251 22.8254 55.3331C22.8271 55.3412 22.8303 55.3508 22.8319 55.3589C22.8335 55.3637 22.8351 55.3686 22.8383 55.3734C22.8738 55.4281 22.9093 55.4812 22.9464 55.5328C23.0205 55.639 23.0979 55.7421 23.1769 55.8419C23.2962 55.9916 23.4236 56.1365 23.5574 56.2749C24.2249 56.3715 24.8924 56.4585 25.5616 56.5373C25.7405 56.51 25.9179 56.4746 26.0936 56.4327C26.5016 56.3361 26.8982 56.2089 27.2868 56.0592C27.4802 55.9835 27.6721 55.903 27.8608 55.8161C28.0494 55.7292 28.2364 55.6374 28.4218 55.5392C28.5025 55.4973 28.5815 55.4539 28.6621 55.4104C29.2167 55.1061 29.7488 54.7648 30.2583 54.3978C30.7694 54.0291 31.2595 53.6331 31.7352 53.2177C31.8029 53.1582 31.8706 53.0986 31.9383 53.0374C31.9883 52.9923 32.0367 52.9473 32.0883 52.9006C32.393 52.6221 32.6929 52.3355 32.9847 52.0425C33.0976 51.9282 33.2089 51.8139 33.3201 51.6964C33.6861 51.3132 34.0424 50.922 34.3891 50.5211C34.5971 50.2812 34.8002 50.0365 35.0002 49.7902C35.0243 49.7612 35.0485 49.7307 35.0727 49.7001C35.2098 49.5294 35.3452 49.3572 35.4806 49.1833C35.9047 48.6359 36.3126 48.0773 36.706 47.5074C36.9188 47.1983 37.1268 46.8876 37.3316 46.5736C37.4461 46.3965 37.5589 46.2195 37.6702 46.0424C37.8234 45.7993 37.9733 45.553 38.1216 45.3066C37.4364 45.2905 36.7528 45.2825 36.0675 45.2825Z" fill="#F1ECE2"/>
<path fill-rule="evenodd" clip-rule="evenodd" d="M31.9947 45.3807C31.6513 45.3968 31.3079 45.4161 30.9661 45.437C30.5904 45.9683 30.2018 46.4915 29.7955 47.0019C29.3973 47.5042 28.9893 47.9968 28.5605 48.4749C28.317 48.7454 28.0719 49.0143 27.8204 49.2783C27.643 49.465 27.4625 49.6502 27.277 49.8305C26.5402 50.5501 25.7679 51.2295 24.9376 51.8429C24.7989 51.9443 24.6602 52.0441 24.5183 52.1423C24.0524 52.4659 23.5703 52.7653 23.0689 53.0342C22.7061 53.2306 22.332 53.4045 21.9531 53.5639C21.9563 53.5816 21.9531 53.6009 21.9612 53.6186C22.0144 53.7651 22.0708 53.9084 22.1321 54.0517C22.1918 54.1949 22.2562 54.335 22.324 54.4734C22.4594 54.7504 22.611 55.0208 22.7754 55.2848L22.7786 55.2881C22.7899 55.3042 22.8093 55.3186 22.8238 55.3331C22.8512 55.3251 22.877 55.3138 22.9044 55.309C23.3994 55.2269 23.8799 55.0868 24.3523 54.9146C25.281 54.5749 26.1436 54.1048 26.9659 53.5606C27.4125 53.266 27.843 52.9489 28.259 52.6156C28.7926 52.189 29.3037 51.7366 29.7987 51.2649C30.3647 50.724 30.9016 50.1573 31.4175 49.5697C31.6223 49.3378 31.8222 49.1028 32.0205 48.8645C32.9621 47.7295 33.8247 46.535 34.6244 45.297C33.7473 45.3131 32.8686 45.3388 31.9931 45.3823L31.9947 45.3807Z" fill="#00BBBB"/>
<path fill-rule="evenodd" clip-rule="evenodd" d="M24.2249 48.7969C24.2604 48.8034 24.2943 48.8082 24.3281 48.8146C23.6558 49.4634 22.9496 50.072 22.1966 50.629C21.9225 50.8318 21.6484 51.0347 21.3518 51.2069C21.2969 50.9703 21.2728 50.7288 21.2453 50.4873C21.1518 49.7178 21.1164 48.945 21.1147 48.1723C21.3018 48.2173 21.4888 48.2608 21.6775 48.3043C22.2273 48.4299 22.7787 48.5409 23.3317 48.6424C23.63 48.6971 23.9283 48.7486 24.2265 48.7985L24.2249 48.7969Z" fill="#F1ECE2"/>
<path fill-rule="evenodd" clip-rule="evenodd" d="M27.3044 45.751C27.2254 45.7606 27.1448 45.7671 27.0642 45.7751C26.2709 46.7829 25.4244 47.744 24.5054 48.644C24.4473 48.7019 24.3877 48.7583 24.3296 48.8146C24.357 48.8194 24.3845 48.8243 24.4103 48.8291C24.3828 48.8243 24.357 48.8194 24.3296 48.8162C23.6573 49.465 22.9511 50.0736 22.1981 50.6306C21.924 50.8334 21.6499 51.0363 21.3533 51.2085C21.3565 51.2407 21.3581 51.2746 21.3613 51.3068C21.3613 51.3164 21.3613 51.3245 21.3646 51.3341C21.371 51.3712 21.3791 51.4082 21.3855 51.4452C21.3904 51.4758 21.3952 51.5048 21.4016 51.5354C21.4162 51.6094 21.4307 51.6851 21.4452 51.7607C21.5306 52.1858 21.6322 52.6059 21.7596 53.0197C21.8176 53.2048 21.8644 53.3948 21.9579 53.5687C22.3368 53.4093 22.7109 53.2354 23.0736 53.039C23.5751 52.7685 24.0572 52.4691 24.5231 52.1471C24.665 52.0505 24.8037 51.9507 24.9423 51.8477C25.7727 51.2359 26.545 50.5549 27.2818 49.8353C27.4672 49.655 27.6462 49.4699 27.8252 49.2831C28.0767 49.0191 28.3218 48.7502 28.5652 48.4798C28.9925 48.0016 29.402 47.509 29.8003 47.0067C30.205 46.4947 30.5952 45.9731 30.9708 45.4419C29.7487 45.5159 28.5281 45.619 27.3092 45.7542L27.3044 45.751Z" fill="#004646"/>
<path fill-rule="evenodd" clip-rule="evenodd" d="M23.3301 48.6407C23.6284 48.6955 23.9266 48.747 24.2249 48.7969C23.9266 48.747 23.6267 48.6955 23.3301 48.6407Z" fill="#004646"/>
<path fill-rule="evenodd" clip-rule="evenodd" d="M26.5402 45.8492C26.7128 45.8121 26.8885 45.7928 27.0643 45.7751C26.271 46.7829 25.4245 47.744 24.5055 48.644C24.4474 48.7019 24.3878 48.7583 24.3297 48.8146L24.2265 48.7985C23.9283 48.7486 23.63 48.6971 23.3317 48.6424C22.7787 48.5409 22.2256 48.4299 21.6775 48.3043C21.4904 48.2608 21.3018 48.2173 21.1147 48.1723C21.1147 47.8809 21.118 47.5879 21.126 47.2949C21.1309 47.121 21.1389 46.9487 21.1486 46.7765C21.7855 46.6251 22.4272 46.4915 23.0705 46.3692C24.1701 46.1615 25.2762 45.9925 26.3855 45.8556C26.4032 45.854 26.4209 45.8508 26.4387 45.8492C26.4596 45.846 26.4806 45.8443 26.5015 45.846C26.5144 45.846 26.5273 45.8492 26.5402 45.8524V45.8492Z" fill="#00BBBB"/>
<path fill-rule="evenodd" clip-rule="evenodd" d="M46.1543 31.7786C46.796 31.8575 47.4393 31.9347 48.081 32.0136C48.0778 32.0201 48.073 32.0265 48.0665 32.0329C47.6683 31.9846 47.2684 31.938 46.8702 31.8864C46.7541 31.872 46.638 31.8623 46.5219 31.8494C46.4058 31.8365 46.2897 31.8237 46.1753 31.8011C46.1688 31.7931 46.1624 31.7866 46.1543 31.7802V31.7786Z" fill="#156731"/>
<path fill-rule="evenodd" clip-rule="evenodd" d="M61.4553 46.6477V44.0026C61.3989 43.7563 61.3215 43.5164 61.1845 43.3007C60.9636 42.953 60.7008 42.6422 60.3719 42.3879C60.0284 42.1222 59.6769 41.8727 59.298 41.6602C58.7773 41.3688 58.2355 41.1225 57.6922 40.8794C57.5954 40.8359 57.4955 40.815 57.3987 40.7764C56.1701 40.2966 54.906 39.936 53.6259 39.6253C52.8068 39.4256 51.9813 39.255 51.1525 39.1004C50.2222 38.9266 49.2871 38.7769 48.3503 38.6481C47.7038 38.5595 47.0572 38.479 46.4091 38.4066C46.1205 38.3744 45.8318 38.3438 45.5432 38.3148C44.7274 38.2359 43.9099 38.1619 43.0925 38.1039C42.6104 38.0685 42.1267 38.0379 41.6446 38.0105C41.2351 37.988 40.8239 37.9671 40.4128 37.9478C39.7663 37.9188 39.1213 37.8962 38.4748 37.8817C38.428 37.8817 38.3813 37.8785 38.3345 37.8785C37.3139 37.856 36.2917 37.8495 35.2711 37.8592H35.2211C34.1698 37.8689 33.1186 37.893 32.069 37.9365C32.0061 37.9381 31.9432 37.9429 31.8803 37.9445C30.6372 37.9977 29.3973 38.0749 28.1575 38.1796C26.3371 38.3325 24.5233 38.5402 22.7191 38.8235C22.6755 38.83 22.6336 38.838 22.5901 38.8445C22.5208 39.0892 22.4579 39.3371 22.3708 39.577C22.3095 39.8217 22.2483 40.0664 22.1854 40.3095C22.0193 40.9583 21.8694 41.6103 21.7388 42.2671C21.8307 42.251 21.9226 42.2365 22.0145 42.2204C22.1354 42.1995 22.2563 42.1802 22.3756 42.1593L22.9125 42.0723C23.5591 41.9725 24.2089 41.8824 24.857 41.8003C25.5068 41.7182 26.1566 41.6457 26.8079 41.5813C27.2417 41.5378 27.677 41.4976 28.1123 41.4606C28.7701 41.4058 29.4296 41.3591 30.089 41.3173C30.7098 41.2786 31.3305 41.2481 31.9513 41.2223C32.1109 41.2159 32.2705 41.2078 32.4301 41.2014C32.6672 41.1917 32.9058 41.1853 33.1428 41.1772C33.296 41.1724 33.4491 41.1692 33.6039 41.166C34.1634 41.1515 34.7229 41.1434 35.2824 41.1386C35.4936 41.1386 35.7032 41.1354 35.9144 41.1354C36.2756 41.1354 36.6367 41.1354 36.9963 41.1386C37.1269 41.1386 37.2575 41.1402 37.3881 41.1434L37.8089 41.1482C38.191 41.1547 38.5715 41.1643 38.9536 41.1756C39.3358 41.1869 39.7163 41.2014 40.0984 41.2159C40.1613 41.2175 40.2242 41.2223 40.287 41.2239C40.6966 41.2416 41.1061 41.2625 41.514 41.2835C41.8284 41.3012 42.1428 41.3205 42.4572 41.3398C42.928 41.3704 43.4004 41.4042 43.8712 41.4429C44.305 41.4783 44.7387 41.5185 45.174 41.562C45.1885 41.562 45.2046 41.5652 45.2192 41.5668C45.5303 41.5974 45.8415 41.628 46.1527 41.6602C46.6509 41.7101 47.1491 41.7697 47.6473 41.8357C48.1439 41.9017 48.6405 41.9725 49.1371 42.0466C49.3435 42.0772 49.5499 42.1094 49.7546 42.1416C50.3722 42.2414 50.9881 42.3508 51.6008 42.4716C51.9619 42.5424 52.3215 42.6165 52.681 42.6938C53.0406 42.771 53.3985 42.8547 53.7565 42.9417C54.2998 43.0753 54.8399 43.2186 55.3736 43.3747C56.0863 43.584 56.7925 43.8191 57.4842 44.0944C57.6583 44.162 57.8292 44.2344 58.0017 44.3069C58.2629 44.4196 58.5193 44.5435 58.774 44.6691C58.8369 44.6997 58.8998 44.7303 58.9627 44.7625C59.011 44.7866 59.061 44.8108 59.1094 44.8349C59.1739 44.8671 59.2384 44.8993 59.3013 44.9347C59.3819 44.9782 59.4609 45.0249 59.5351 45.0764C59.822 45.2744 60.1171 45.4612 60.3831 45.6866C60.4444 45.7397 60.5041 45.7928 60.5621 45.8492C60.6314 45.9071 60.6975 45.9699 60.7604 46.0327C60.8652 46.1373 60.962 46.25 61.0474 46.3676C61.0893 46.4255 61.128 46.4851 61.1651 46.5463C61.1974 46.5994 61.2264 46.6525 61.2538 46.7073C61.2812 46.762 61.307 46.8183 61.3296 46.8779C61.3538 46.9359 61.3747 46.9954 61.3941 47.055C61.407 47.0969 61.4215 47.1403 61.4344 47.1822C61.4473 47.224 61.4344 47.1854 61.436 47.187V47.1822C61.4699 47.0035 61.4489 46.8232 61.4505 46.6429L61.4553 46.6477Z" fill="#F1ECE2"/>
<path fill-rule="evenodd" clip-rule="evenodd" d="M61.465 43.6549C61.4666 42.9867 61.4666 42.3202 61.465 41.6521C61.465 41.3446 61.4617 41.0355 61.4601 40.728C61.4069 40.5542 61.3698 40.3755 61.2908 40.2097C61.0893 39.7927 60.7878 39.4578 60.4395 39.1584C60.059 38.83 59.6382 38.5579 59.1964 38.318C58.5563 37.9671 57.892 37.6676 57.2068 37.4149C56.4135 37.1219 55.609 36.8627 54.7931 36.6405C54.1692 36.4715 53.542 36.3153 52.9132 36.172C52.1957 36.0094 51.475 35.8661 50.751 35.7389C49.9997 35.6085 49.2451 35.483 48.4889 35.3783C48.131 35.3284 47.7714 35.2817 47.4119 35.2367C46.6089 35.1336 45.8044 35.0435 44.9982 34.9726C44.8483 34.9581 44.6999 34.9372 44.55 34.9259C43.9405 34.8793 43.3311 34.8342 42.7232 34.7907C42.6362 34.7843 42.5491 34.7778 42.462 34.7714C42.0557 34.7424 41.6494 34.7134 41.2431 34.6925C40.7143 34.6667 40.1854 34.6474 39.6566 34.6281H39.6421C39.089 34.6088 38.5376 34.5879 37.9846 34.5782C37.4977 34.5702 37.0107 34.5653 36.5222 34.5637C36.3078 34.5637 36.0933 34.5621 35.8773 34.5621C35.0227 34.5621 34.1698 34.575 33.3169 34.5991H33.2798C32.2785 34.6281 31.2757 34.6684 30.276 34.7328C29.5069 34.7811 28.7379 34.8245 27.9704 34.8889C27.6592 34.9147 27.3496 34.9533 27.0401 34.9839C25.9582 35.0918 24.8796 35.2173 23.8041 35.3687C23.7912 35.3703 23.7799 35.3719 23.767 35.3735C23.3366 36.4859 22.9496 37.6129 22.6094 38.7575C22.6013 38.7865 22.5933 38.8139 22.5852 38.8428C22.6271 38.8364 22.6707 38.8284 22.7142 38.8219C24.5184 38.5386 26.3323 38.3293 28.1526 38.178C29.3925 38.0749 30.6324 37.996 31.8755 37.9429C31.9383 37.9397 32.0012 37.9365 32.0641 37.9349C33.1137 37.8914 34.165 37.8672 35.2162 37.8576H35.2662C36.2884 37.8495 37.309 37.856 38.3296 37.8769C38.3764 37.8769 38.4231 37.8801 38.4699 37.8801C39.1164 37.8946 39.7614 37.9172 40.4079 37.9461C40.8191 37.9654 41.2286 37.9864 41.6397 38.0089C42.1218 38.0363 42.6055 38.0669 43.0876 38.1023C43.9051 38.1619 44.7225 38.2343 45.5384 38.3132C45.827 38.3422 46.1156 38.3728 46.4042 38.405C47.0523 38.4774 47.6989 38.5579 48.3454 38.6464C49.2822 38.7752 50.2173 38.925 51.1477 39.0988C51.9764 39.2534 52.8019 39.424 53.621 39.6237C54.9012 39.9344 56.1652 40.295 57.3938 40.7747C57.4906 40.8134 57.5905 40.8343 57.6873 40.8778C58.2306 41.1225 58.7724 41.3672 59.2932 41.6586C59.6721 41.8711 60.0235 42.1206 60.367 42.3863C60.6959 42.6406 60.9587 42.9513 61.1796 43.2991C61.3166 43.5148 61.3924 43.7547 61.4505 44.001C61.473 43.8851 61.4601 43.7676 61.4601 43.6516L61.465 43.6549Z" fill="#00BBBB"/>
<path fill-rule="evenodd" clip-rule="evenodd" d="M42.5103 18.4147C42.9553 19.1086 43.2778 19.8588 43.5212 20.6445C43.597 20.8876 43.6647 21.1323 43.726 21.3786C43.8276 21.7891 43.9066 22.2061 43.9695 22.6246C43.9872 22.747 44.0049 22.8694 44.0211 22.9933C44.0517 23.2396 44.0791 23.4859 44.1017 23.7323C44.1114 23.8562 44.121 23.9786 44.1307 24.1025C44.1758 24.7755 44.1952 25.4484 44.1775 26.123C44.1581 26.8281 44.1162 27.5333 44.0452 28.2368C43.9743 28.9355 43.8776 29.631 43.7615 30.3216C43.6921 30.737 43.6148 31.1507 43.5309 31.5612C42.8634 31.5081 42.1959 31.463 41.5268 31.4308C41.2059 31.4163 40.8835 31.3986 40.561 31.3825C40.7787 30.4488 40.9625 29.5086 41.106 28.5588C41.264 27.5075 41.3768 26.453 41.4188 25.3921C41.4526 24.4905 41.4478 23.5874 41.3752 22.6858C41.314 21.934 41.2124 21.1902 41.0511 20.4529C40.869 19.6238 40.6126 18.8188 40.245 18.0509C40.0999 17.7466 39.929 17.4552 39.7581 17.1655C39.8983 17.1204 40.0451 17.1155 40.1885 17.1011C40.2643 17.093 40.3401 17.0866 40.4143 17.0817C40.4788 17.0785 40.5433 17.0753 40.6078 17.0737C40.7126 17.0721 40.8174 17.0721 40.9222 17.0737C40.9947 17.0753 41.0689 17.0785 41.1414 17.0817C41.1979 17.085 41.2543 17.0882 41.3107 17.093C41.3204 17.093 41.3301 17.0946 41.3381 17.0962C41.3559 17.0994 41.372 17.1043 41.3881 17.1107C41.4042 17.1172 41.4188 17.1252 41.4333 17.1349C41.4542 17.1477 41.4752 17.1655 41.4945 17.1832C41.5445 17.2282 41.5929 17.2749 41.6396 17.3216C41.7348 17.415 41.8267 17.5132 41.9137 17.613C42.1346 17.8625 42.333 18.1282 42.5151 18.4115L42.5103 18.4147Z" fill="#F1ECE2"/>
<path fill-rule="evenodd" clip-rule="evenodd" d="M41.0463 20.4529C41.2075 21.1886 41.3091 21.934 41.3704 22.6858C41.4445 23.5874 41.4494 24.4905 41.4139 25.3921C41.3736 26.453 41.2607 27.5075 41.1011 28.5588C40.9576 29.5086 40.7738 30.4504 40.5561 31.3825C40.3127 31.3713 40.0676 31.3584 39.8241 31.3487C39.2663 31.3278 38.71 31.3149 38.1521 31.3037C37.9442 31.2988 37.7362 31.2956 37.5298 31.2924C37.7329 30.5277 37.9119 29.7565 38.0651 28.9806C38.1812 28.3994 38.2811 27.815 38.3698 27.229C38.4279 26.8362 38.4795 26.4433 38.5246 26.0489C38.5714 25.6368 38.6084 25.223 38.6342 24.8077C38.6616 24.365 38.6794 23.9206 38.6891 23.4779C38.7003 22.8838 38.681 22.2914 38.6375 21.6989C38.6084 21.3077 38.5714 20.9181 38.5214 20.5285C38.4537 19.9957 38.3569 19.4692 38.2295 18.9476C38.128 18.5307 38.0119 18.1153 37.8571 17.7128C37.9635 17.6452 38.086 17.6114 38.2037 17.5679C38.4424 17.4794 38.6826 17.4021 38.9277 17.3345C39.1728 17.2685 39.4194 17.2121 39.671 17.1703C39.6887 17.1671 39.7048 17.1622 39.7226 17.1622C39.7338 17.1622 39.7435 17.1622 39.7532 17.1655C39.9241 17.4552 40.095 17.745 40.2401 18.0509C40.6077 18.8188 40.8641 19.6238 41.0463 20.4529Z" fill="#00BBBB"/>
<path fill-rule="evenodd" clip-rule="evenodd" d="M61.452 50.3617C61.4537 50.3199 61.4569 50.278 61.4569 50.2362C61.4569 49.5471 61.4585 48.8565 61.4585 48.1674C61.4585 47.8696 61.4537 47.5718 61.452 47.2739C61.452 47.2562 61.4601 47.2369 61.4585 47.2192C61.4537 47.2079 61.4472 47.1999 61.4424 47.1902V47.1934C61.4424 47.1918 61.4424 47.1902 61.4408 47.1886C61.4279 47.1451 61.4134 47.1033 61.4005 47.0598C61.3811 46.9986 61.3585 46.9391 61.336 46.8827C61.3134 46.8248 61.2876 46.7684 61.2602 46.7121C61.2328 46.6573 61.2021 46.6026 61.1715 46.5511C61.1344 46.4899 61.0957 46.4303 61.0538 46.3724C60.9683 46.2533 60.8732 46.1422 60.7668 46.0375C60.7039 45.9747 60.6378 45.9136 60.5685 45.854C60.5104 45.796 60.4508 45.7429 60.3895 45.6914C60.1235 45.466 59.8284 45.2793 59.5414 45.0812C59.4657 45.0297 59.3866 44.983 59.3076 44.9396C59.2448 44.9058 59.1803 44.872 59.1158 44.8398C59.0674 44.8156 59.0174 44.7915 58.9691 44.7673C58.9062 44.7351 58.8433 44.7045 58.7804 44.6739C58.5257 44.5484 58.2693 44.4244 58.0081 44.3117C57.8356 44.2393 57.6647 44.1668 57.4905 44.0992C56.7972 43.8255 56.0927 43.5889 55.38 43.3796C54.8447 43.2218 54.3046 43.0785 53.7628 42.9465C53.4049 42.8596 53.047 42.7759 52.6874 42.6986C52.3279 42.6213 51.9683 42.5473 51.6071 42.4764C50.9928 42.3557 50.3769 42.2446 49.761 42.1464C49.5547 42.1142 49.3499 42.082 49.1435 42.0514C48.6469 41.9773 48.1519 41.9065 47.6537 41.8405C47.1571 41.7745 46.6589 41.7149 46.1591 41.665C45.8479 41.6344 45.5367 41.6022 45.2255 41.5716C45.211 41.5716 45.1949 41.5684 45.1804 41.5668C44.7467 41.5233 44.313 41.4831 43.8776 41.4477C43.4068 41.409 42.9344 41.3768 42.4636 41.3447C42.1492 41.3237 41.8348 41.3044 41.5204 41.2883C41.1109 41.2658 40.7013 41.2448 40.2934 41.2287C40.2305 41.2255 40.1677 41.2223 40.1048 41.2207C39.7227 41.2046 39.3421 41.1917 38.96 41.1804C38.5779 41.1692 38.1974 41.1595 37.8153 41.1531L37.3944 41.1482L37.0026 41.1434C36.6415 41.1402 36.2803 41.1386 35.9208 41.1402C35.7096 41.1402 35.4983 41.1418 35.2887 41.1434C34.7293 41.1482 34.1698 41.1563 33.6103 41.1708C33.4571 41.174 33.304 41.1788 33.1492 41.182C32.9122 41.1885 32.6735 41.1965 32.4365 41.2062C32.2769 41.2126 32.1173 41.2207 31.9577 41.2271C31.3369 41.2529 30.7162 41.2851 30.0954 41.3221C29.436 41.364 28.7765 41.409 28.1187 41.4654C27.6834 41.5024 27.248 41.5427 26.8143 41.5861C26.1629 41.6505 25.5132 41.723 24.8634 41.8051C24.2136 41.8872 23.5655 41.9773 22.9189 42.0772C22.74 42.1045 22.561 42.1335 22.382 42.1641C22.2611 42.1834 22.1418 42.2043 22.0209 42.2253C21.929 42.2414 21.8371 42.2559 21.7452 42.272C21.8758 41.6151 22.0257 40.9631 22.1918 40.3143C22.2546 40.0696 22.3159 39.8265 22.3772 39.5818C22.4643 39.3419 22.5271 39.094 22.5965 38.8493C22.6045 38.8203 22.6126 38.7929 22.6206 38.764C22.9609 37.6193 23.3478 36.4908 23.7783 35.3799C24.0508 34.6748 24.341 33.9761 24.649 33.2838C24.8553 32.8202 25.0698 32.3581 25.2907 31.9025C26.0211 30.3941 26.8321 28.9274 27.7317 27.5091C28.5718 26.1793 29.486 24.9043 30.4872 23.6904C30.5082 23.6663 30.5243 23.6373 30.5436 23.6115C30.8452 23.267 31.1418 22.9193 31.4498 22.5796C32.4526 21.4703 33.5329 20.4432 34.7293 19.5433C35.0243 19.3211 35.329 19.1118 35.6306 18.8977C35.658 18.8784 35.6918 18.8752 35.7241 18.8736C35.7386 18.8301 35.7789 18.8108 35.8127 18.7899C36.4303 18.3954 37.072 18.0445 37.7475 17.7611C37.7717 17.7515 37.7943 17.7386 37.8201 17.7305C37.8265 17.7289 37.8346 17.7273 37.8427 17.7257C37.8507 17.7257 37.8588 17.7225 37.8669 17.7225C37.9733 17.6549 38.0958 17.6211 38.2135 17.5776C38.4521 17.489 38.6924 17.4118 38.9374 17.3442C39.1825 17.2781 39.4292 17.2218 39.6807 17.1799C39.6985 17.1767 39.7146 17.1719 39.7323 17.1719C39.7436 17.1719 39.7533 17.1719 39.763 17.1751C39.9032 17.13 40.05 17.1252 40.1935 17.1107C40.2692 17.1027 40.345 17.0962 40.4192 17.0914C40.4837 17.0882 40.5482 17.085 40.6127 17.0833C40.7175 17.0817 40.8223 17.0817 40.9271 17.0833C40.9996 17.085 41.0738 17.0882 41.1463 17.0914C41.2028 17.0946 41.2592 17.0978 41.3156 17.1027C41.3253 17.1027 41.335 17.1043 41.343 17.1059C41.3608 17.1091 41.3769 17.1139 41.393 17.1204C41.4092 17.1268 41.4237 17.1349 41.4382 17.1445C41.4591 17.1574 41.4801 17.1751 41.4994 17.1928C41.5494 17.2379 41.5978 17.2846 41.6446 17.3313C41.7397 17.4246 41.8316 17.5229 41.9186 17.6227C42.1395 17.8722 42.3379 18.1378 42.52 18.4212C42.9651 19.1151 43.2875 19.8653 43.531 20.6509C43.6068 20.894 43.6745 21.1387 43.7357 21.385C43.8373 21.7955 43.9163 22.2125 43.9792 22.6311C43.9969 22.7534 44.0147 22.8758 44.0308 22.9998C44.0614 23.2461 44.0888 23.4924 44.1114 23.7387C44.1211 23.8627 44.1308 23.985 44.1404 24.109C44.1856 24.7819 44.2049 25.4549 44.1872 26.1294C44.1678 26.8346 44.1259 27.5397 44.055 28.2432C43.984 28.9419 43.8873 29.6374 43.7712 30.3281C43.7019 30.7434 43.6245 31.1572 43.5407 31.5677C43.6487 31.5757 43.7567 31.5838 43.8647 31.5934C44.6403 31.6578 45.4142 31.7351 46.1881 31.8059C46.1817 31.7979 46.1752 31.7915 46.1671 31.785C46.8088 31.8639 47.4522 31.9412 48.0939 32.0201C48.0907 32.0265 48.0858 32.0329 48.0794 32.0394C48.1181 32.0442 48.1568 32.0507 48.1955 32.0555C48.3244 31.4212 48.4405 30.7869 48.5389 30.1477C48.6259 29.5746 48.7033 28.9999 48.763 28.4235C48.8194 27.8842 48.8694 27.3449 48.8952 26.8024C48.9081 26.5416 48.9226 26.2791 48.9387 26.0183C48.9404 25.9845 48.9226 25.9394 48.9758 25.925C48.9758 25.4388 48.9726 24.951 48.971 24.4648C48.9452 24.4535 48.9436 24.431 48.9404 24.4068C48.9339 24.3086 48.9226 24.212 48.9194 24.1138C48.9 23.4071 48.8355 22.7051 48.7404 22.0064C48.6356 21.2321 48.4808 20.469 48.2664 19.7172C48.2132 19.5288 48.168 19.3388 48.0842 19.1601L48.0665 19.0957C48.0665 19.0957 48.06 19.0909 48.06 19.0877V19.0812C48.0552 19.0587 48.052 19.0362 48.0439 19.0136C47.7327 18.1169 47.3264 17.2669 46.7669 16.4941C46.2284 15.7487 45.5786 15.1257 44.7773 14.662C44.4774 14.4882 44.1517 14.3658 43.8438 14.2097C43.8164 14.1952 43.7809 14.1984 43.7486 14.192C43.7212 14.1565 43.6777 14.1469 43.6406 14.1292C42.9135 13.8072 42.1879 13.4852 41.4591 13.1664C41.3656 13.1246 41.2802 13.0634 41.1754 13.0505C41.1576 13.0441 41.1399 13.0393 41.1222 13.0328C40.998 12.9926 40.8706 12.9636 40.7513 12.9072C40.74 12.904 40.7304 12.9008 40.7191 12.896C40.7142 12.8944 40.7078 12.8928 40.7029 12.8912H40.6997C40.6868 12.8992 40.6788 12.8928 40.6707 12.8815C40.4369 12.8219 40.2031 12.7768 39.9661 12.7446C39.7952 12.7205 39.6243 12.7028 39.4518 12.6931C39.3937 12.6899 39.3373 12.6883 39.2793 12.6867C39.1067 12.6819 38.9358 12.6835 38.7649 12.6915C38.5376 12.7012 38.3119 12.7221 38.0861 12.7527C37.6927 12.8074 37.3025 12.8895 36.9156 12.9958C36.8608 13.0119 36.8043 13.0264 36.7495 13.0441C36.0224 13.2598 35.329 13.5512 34.6599 13.8957C34.4374 14.01 34.2165 14.1308 33.9973 14.258C33.7973 14.3723 33.6006 14.4898 33.4055 14.6138C33.341 14.654 33.2765 14.6959 33.2121 14.7377C33.1476 14.7796 33.0831 14.8214 33.0202 14.8649C32.8928 14.9502 32.7671 15.0372 32.6429 15.1273C32.5816 15.1724 32.5188 15.2175 32.4575 15.2625V15.2754C32.4575 15.2786 32.4543 15.2819 32.4526 15.2851C32.4478 15.2899 32.4414 15.2915 32.4317 15.2915H32.4301V15.2996C32.4301 15.306 32.4269 15.3092 32.4236 15.3108C32.4204 15.3125 32.4172 15.3125 32.4107 15.3108C32.4091 15.3108 32.4059 15.3108 32.4043 15.3076C32.1302 15.4992 31.8641 15.6988 31.6046 15.9065C31.4885 15.9983 31.374 16.0933 31.2611 16.1882C31.2434 16.2027 31.2257 16.2188 31.2079 16.2333C31.0918 16.3315 30.9758 16.4313 30.8613 16.5328V16.5408C30.8613 16.5489 30.8581 16.5537 30.8532 16.5585C30.8532 16.5585 30.85 16.5601 30.8484 16.5617C30.8452 16.5633 30.8403 16.565 30.8355 16.565C30.8323 16.5714 30.8274 16.5778 30.8226 16.5827C30.8161 16.5891 30.8113 16.5955 30.8032 16.6004C30.7936 16.6068 30.7823 16.6133 30.7694 16.6149C30.7694 16.6294 30.7662 16.6374 30.7597 16.6406C30.75 16.6471 30.7323 16.6422 30.7194 16.6438C30.6759 16.6889 30.6307 16.734 30.5872 16.7775C30.584 16.7807 30.5823 16.7839 30.5791 16.7855V16.792C30.5791 16.7984 30.5759 16.8016 30.5727 16.8064H30.5711C30.5711 16.8064 30.5614 16.8113 30.5517 16.8113C30.513 16.8435 30.4711 16.8725 30.434 16.9063C30.4308 16.9095 30.4276 16.9111 30.4243 16.9143C30.2825 17.0479 30.139 17.1816 29.9987 17.3184C29.989 17.3281 29.9793 17.3361 29.9713 17.3442C29.9277 17.3876 29.8826 17.4279 29.8374 17.4697C29.7246 17.5744 29.6085 17.6758 29.5005 17.7853C29.4424 17.8448 29.3828 17.9044 29.3247 17.9624C28.9894 18.302 28.6572 18.645 28.3364 18.9991C27.9268 19.4515 27.5286 19.912 27.1416 20.382C27.0868 20.4497 27.0304 20.5157 26.9756 20.5833C26.9675 20.5929 26.9578 20.6042 26.9514 20.6155C26.9401 20.6316 26.9288 20.6477 26.9175 20.6654C26.903 20.6879 26.8885 20.7105 26.874 20.7314C26.8627 20.7475 26.8514 20.762 26.8385 20.7781C26.8337 20.7829 26.8304 20.7877 26.8272 20.791C26.8095 20.8103 26.7918 20.828 26.7708 20.8425C26.7708 20.8473 26.7692 20.8489 26.7676 20.8521C26.7676 20.8554 26.7676 20.8586 26.7643 20.8618C26.7643 20.8634 26.7611 20.865 26.7595 20.8666C26.7563 20.8682 26.7514 20.8698 26.7482 20.8715C26.7385 20.9165 26.7015 20.9391 26.6708 20.9681C26.6692 20.9681 26.6676 20.9713 26.666 20.9729C26.6563 20.9809 26.6499 20.9906 26.6434 21.0003C26.6402 21.0051 26.637 21.0099 26.6354 21.0164C26.6337 21.0228 26.6305 21.0276 26.6289 21.0341V21.0421C26.6289 21.0502 26.6257 21.055 26.6192 21.0598C26.6192 21.0598 26.616 21.0598 26.616 21.0614H26.6096H26.6031C26.5322 21.15 26.4596 21.2385 26.3887 21.3271C26.3854 21.3319 26.3806 21.3367 26.3774 21.3416C26.379 21.3528 26.379 21.3625 26.3774 21.3721C26.3774 21.3802 26.3725 21.385 26.3693 21.3915C26.3693 21.3931 26.3661 21.3963 26.3661 21.3979C26.3613 21.4027 26.3548 21.4092 26.3484 21.4124C26.3403 21.4172 26.3306 21.4204 26.3209 21.4237C26.3097 21.4365 26.2984 21.4478 26.2871 21.4607C26.2823 21.4655 26.279 21.4703 26.2758 21.4736C26.2661 21.4832 26.2581 21.4945 26.25 21.5042C26.0678 21.7489 25.8856 21.9952 25.7034 22.2399C25.7034 22.2479 25.7002 22.2528 25.6954 22.2576C25.6954 22.2576 25.6938 22.2592 25.6921 22.2608C25.6889 22.264 25.6841 22.2656 25.6792 22.2656C25.5535 22.4427 25.4245 22.6182 25.3003 22.7969C25.2762 22.8323 25.252 22.8677 25.2278 22.9032C25.0424 23.1752 24.8682 23.4554 24.6812 23.7258C24.5877 23.8611 24.499 23.9995 24.4103 24.1364C24.32 24.2732 24.2298 24.41 24.1314 24.5437C23.975 24.7578 23.8412 24.9912 23.7041 25.2182C23.6445 25.3164 23.5848 25.4146 23.5268 25.5128C22.8641 26.6108 22.2208 27.72 21.6726 28.8807C21.6404 28.9484 21.6033 29.0111 21.5662 29.0755C21.5291 29.1383 21.4904 29.2027 21.4582 29.2671C21.2711 29.6422 21.0889 30.019 20.9116 30.3989C20.8455 30.5406 20.781 30.6822 20.7149 30.8255C20.6294 31.0107 20.5456 31.1974 20.4633 31.3842C20.3585 31.6208 20.2537 31.8591 20.1506 32.099C20.107 32.1988 20.0651 32.3002 20.0232 32.4016C19.97 32.5272 19.9168 32.6528 19.8652 32.7799C19.6814 33.2259 19.504 33.6767 19.3315 34.1274C19.2815 34.2594 19.2315 34.3915 19.1832 34.5251C19.0655 34.8471 18.951 35.169 18.8365 35.4926C18.8091 35.5699 18.7817 35.6472 18.7543 35.7245C18.7333 35.784 18.7124 35.8452 18.693 35.9064C18.6398 36.0593 18.5898 36.2139 18.5414 36.3684C18.4818 36.5568 18.4237 36.7451 18.3657 36.9335C18.3238 37.0687 18.2819 37.2024 18.2383 37.3376C18.14 37.6386 18.0255 37.9365 17.9868 38.2536C17.9852 38.2697 17.9658 38.2842 17.9562 38.2987C17.9078 38.4307 17.8788 38.566 17.8465 38.7012C17.8304 38.7656 17.8111 38.83 17.7917 38.8944C17.7724 38.9588 17.753 39.0232 17.7353 39.0876C17.6611 39.3645 17.5886 39.643 17.5208 39.9215C17.458 40.1726 17.3983 40.427 17.3403 40.6798C17.2758 40.9647 17.2145 41.2497 17.1548 41.5346C17.1032 41.7842 17.0533 42.0353 17.0065 42.2864C16.9694 42.4861 16.9323 42.6841 16.8985 42.8837C16.8678 43.0592 16.8404 43.2347 16.8114 43.4102C16.7759 43.6339 16.7421 43.8561 16.7115 44.0799C16.684 44.2811 16.6582 44.4807 16.6324 44.682C16.5647 45.2342 16.5099 45.7864 16.4664 46.3418C16.4551 46.5012 16.4438 46.659 16.4357 46.8183C16.4261 46.9777 16.418 47.1355 16.4116 47.2949C16.3987 47.612 16.389 47.9308 16.3793 48.2479C16.3777 48.3204 16.3777 48.3928 16.3761 48.4653V48.5313C16.3745 48.9386 16.3906 49.3443 16.4035 49.7484C16.4035 49.7661 16.4067 49.7854 16.4067 49.8031C16.4099 49.8755 16.4132 49.948 16.418 50.0204C16.4325 50.3134 16.4567 50.6064 16.4873 50.8995C16.5083 51.0975 16.5309 51.2971 16.5567 51.4951C16.5599 51.5241 16.5647 51.5515 16.568 51.5804C16.6228 51.9829 16.6857 52.3838 16.7647 52.7814C16.9114 53.5252 17.1065 54.2561 17.3741 54.9661C17.379 54.9773 17.3838 54.9902 17.3886 55.0031C17.5886 55.5279 17.8207 56.0383 18.1061 56.5245C18.5753 57.3246 19.1477 58.0329 19.8781 58.598C19.9651 58.6656 20.0538 58.73 20.1441 58.7944C20.2312 58.854 20.3247 58.9087 20.415 58.9635C20.4311 58.9747 20.4505 58.9828 20.4682 58.9908C20.4811 58.9973 20.494 59.0021 20.5069 59.0086C20.5295 59.0198 20.5504 59.0343 20.5649 59.0552C20.5698 59.0617 20.5746 59.0713 20.5794 59.081V59.0778C20.6036 59.0746 20.6246 59.0794 20.6359 59.1051H20.6375C20.6601 59.1051 20.681 59.1116 20.6923 59.1325C20.6987 59.1325 20.7036 59.1325 20.7084 59.1341H20.71C20.7245 59.1373 20.7374 59.1438 20.7471 59.1583V59.1599H20.752H20.7616C20.7649 59.1599 20.7665 59.1615 20.7713 59.1615C20.7729 59.1615 20.7761 59.1615 20.7778 59.1631C20.781 59.1631 20.7842 59.1663 20.7874 59.1679C20.7874 59.1679 20.7907 59.1679 20.7923 59.1695C20.7955 59.1728 20.7987 59.176 20.8019 59.1792H20.8036C20.8342 59.2114 20.8761 59.2194 20.9148 59.2372C21.7194 59.5929 22.5255 59.9487 23.3301 60.3045C23.7283 60.48 24.1233 60.6651 24.5442 60.7811C24.965 60.897 25.3922 60.9759 25.8292 60.9936H26.0469H26.6998C26.9111 60.9871 27.1207 60.9598 27.3287 60.9276C28.1751 60.8004 28.9877 60.5508 29.773 60.2144C31.2112 59.5978 32.5091 58.7558 33.7264 57.7818C33.994 57.5677 34.2552 57.3471 34.5148 57.1234C35.4193 57.1395 36.3222 57.1443 37.2268 57.1346C38.0877 57.125 38.9503 57.1105 39.8113 57.0767C39.8533 57.0525 39.8984 57.0525 39.9435 57.0702H39.9822C40.0338 57.0461 40.087 57.0477 40.1402 57.0638H40.1789C40.2096 57.0445 40.2418 57.0412 40.2741 57.0477H40.2773H40.2789C40.2902 57.0509 40.2999 57.0541 40.3095 57.0573H40.3482C40.3692 57.0445 40.3902 57.0396 40.4111 57.038C40.4337 57.038 40.4563 57.0429 40.4804 57.0493H40.5191C40.5337 57.0412 40.5482 57.0364 40.5627 57.0332C40.5917 57.0268 40.6223 57.03 40.653 57.0412H40.6901C40.6901 57.0412 40.6933 57.0412 40.6949 57.0396C40.7368 57.0187 40.7803 57.0187 40.8223 57.0348H40.8593C40.9029 57.0074 40.9464 57.0107 40.9932 57.0268H41.0303C41.0738 57.001 41.1189 57.0042 41.1641 57.0187H41.2012C41.2108 57.0123 41.2189 57.009 41.227 57.0058C41.2415 57.001 41.2544 57.001 41.2689 57.001C41.2818 57.001 41.2963 57.0042 41.3092 57.0107C41.5059 57.001 41.701 56.9946 41.8977 56.9833C43.4036 56.8947 44.9047 56.7756 46.4042 56.6098C48.6808 56.357 50.9429 56.0173 53.1776 55.5086C54.6996 55.1625 56.2007 54.7471 57.6518 54.1627C58.4305 53.8488 59.1867 53.4898 59.8865 53.0197C60.3073 52.7364 60.6975 52.4176 61.0103 52.0103C61.207 51.7511 61.3666 51.4726 61.4279 51.1474C61.452 51.1216 61.4617 51.091 61.4633 51.0588C61.4778 50.8254 61.4859 50.5936 61.4649 50.3601L61.452 50.3617ZM41.2415 45.437C40.8223 45.4113 40.4047 45.3887 39.9855 45.371C40.4047 45.3903 40.8223 45.4129 41.2415 45.437ZM31.9432 53.0374C31.8754 53.097 31.8077 53.1581 31.74 53.2177C31.2644 53.6347 30.7742 54.0291 30.2631 54.3978C29.752 54.7648 29.2215 55.1061 28.6669 55.4104C28.5879 55.4539 28.5073 55.4973 28.4267 55.5392C28.2412 55.6358 28.0542 55.7276 27.8656 55.8161C27.6769 55.903 27.4851 55.9835 27.2916 56.0592C26.9046 56.2105 26.508 56.3361 26.0984 56.4327C25.9211 56.4746 25.7437 56.51 25.5664 56.5373C25.5035 56.547 25.4406 56.5567 25.3793 56.5663C25.1375 56.5985 24.8956 56.6178 24.6522 56.6243C24.5716 56.6259 24.4893 56.6275 24.4087 56.6259C24.3265 56.6259 24.2459 56.6227 24.1637 56.6195C24.1282 56.6178 24.0943 56.613 24.0588 56.6098C24.025 56.6066 23.9895 56.6017 23.954 56.5985C23.9089 56.5953 23.875 56.576 23.8412 56.547C23.7444 56.4601 23.6525 56.3699 23.5623 56.2765C23.4284 56.1381 23.3011 55.9932 23.1817 55.8435C23.1027 55.7437 23.0253 55.6406 22.9512 55.5344C22.9141 55.4812 22.8786 55.4281 22.8432 55.375C22.8399 55.3702 22.8383 55.3653 22.8367 55.3605C22.8351 55.3525 22.8319 55.3428 22.8303 55.3347C22.8157 55.3203 22.7964 55.3058 22.7851 55.2897L22.7819 55.2864C22.6158 55.024 22.4659 54.7536 22.3304 54.4751C22.2627 54.335 22.1982 54.1965 22.1386 54.0533C22.0773 53.9116 22.0209 53.7667 21.9677 53.6202C21.9612 53.6025 21.9628 53.5848 21.9596 53.5655C21.8661 53.3916 21.8193 53.2016 21.7613 53.0165C21.6323 52.6027 21.5307 52.1825 21.4469 51.7575C21.4324 51.6819 21.4178 51.6078 21.4033 51.5321C21.3969 51.5016 21.3937 51.4726 21.3872 51.442C21.3808 51.405 21.3727 51.3679 21.3663 51.3309C21.3663 51.3212 21.3663 51.3132 21.363 51.3035C21.3598 51.2713 21.3582 51.2375 21.355 51.2053C21.3001 50.9687 21.276 50.7272 21.2486 50.4857C21.155 49.7162 21.1196 48.9434 21.118 48.1707C21.118 47.8793 21.1212 47.5863 21.1292 47.2933C21.1341 47.1194 21.1421 46.9471 21.1518 46.7749C21.7887 46.6235 22.4304 46.4899 23.0737 46.3676C24.1733 46.1599 25.2794 45.9908 26.3887 45.854C26.4064 45.8524 26.4241 45.8492 26.4419 45.8476C26.4628 45.8443 26.4838 45.8427 26.5048 45.8443C26.5177 45.8443 26.5306 45.8476 26.5435 45.8508C26.716 45.8138 26.8917 45.7944 27.0675 45.7767C27.1481 45.7687 27.2287 45.7606 27.3077 45.7526C28.5266 45.6173 29.7472 45.5143 30.9693 45.4403C31.3127 45.4193 31.6562 45.4 31.998 45.3839C32.8751 45.342 33.7522 45.3147 34.6293 45.2986C35.1098 45.2889 35.5902 45.2841 36.0707 45.2841C36.756 45.2841 37.4412 45.2921 38.1248 45.3082C37.9765 45.5546 37.8265 45.8009 37.6734 46.044C37.5621 46.2227 37.4493 46.3998 37.3348 46.5752C37.13 46.8892 36.922 47.1999 36.7092 47.509C36.3158 48.0789 35.9079 48.6375 35.4838 49.1849C35.35 49.3588 35.2146 49.531 35.0759 49.7017C35.0517 49.7323 35.0275 49.7629 35.0034 49.7918C34.8034 50.0398 34.6003 50.2829 34.3923 50.5227C34.0456 50.9236 33.6893 51.3148 33.3233 51.698C33.2121 51.8139 33.1008 51.9298 32.9879 52.0441C32.6977 52.3371 32.3978 52.6237 32.0915 52.9022C32.185 52.907 32.2785 52.9102 32.372 52.9151C32.2785 52.9102 32.185 52.907 32.0915 52.9022C32.0415 52.9473 31.9915 52.9939 31.9415 53.039L31.9432 53.0374ZM33.5748 52.9601C33.9295 52.9714 34.2859 52.9811 34.6406 52.9875C34.2843 52.9811 33.9295 52.9714 33.5748 52.9601ZM57.0214 49.1897C57.0117 49.2026 56.9956 49.2155 56.9698 49.2348C56.9359 49.2606 56.902 49.2879 56.8666 49.3121C56.8327 49.3378 56.7972 49.362 56.7618 49.3877C56.6957 49.4344 56.628 49.4795 56.5586 49.523C56.5506 49.5278 56.5425 49.5326 56.5344 49.5391C56.478 49.5745 56.4216 49.6099 56.3635 49.6437C56.2781 49.6952 56.1942 49.7435 56.1072 49.7918C55.5171 50.1203 54.8963 50.3843 54.2627 50.6177C53.6645 50.8367 53.0582 51.0282 52.4472 51.1989C51.5717 51.4436 50.6849 51.6464 49.7901 51.8235C48.921 51.9974 48.0487 52.1439 47.1732 52.2711C46.2977 52.3983 45.419 52.5045 44.5387 52.5963C44.2501 52.6269 43.9615 52.6542 43.6729 52.6816C43.094 52.7347 42.5152 52.7798 41.9364 52.8185C41.6462 52.8378 41.3559 52.8555 41.0673 52.8716C40.4176 52.9086 39.7678 52.936 39.118 52.9569C39.0003 52.9601 38.8826 52.965 38.7633 52.9682C38.6553 52.9714 38.5473 52.9746 38.4376 52.9778C38.7037 52.6494 38.9697 52.3226 39.2132 51.9765C39.2486 51.933 39.2841 51.8895 39.318 51.8445C39.8387 51.1442 40.3386 50.431 40.819 49.7049C40.8448 49.6646 40.9787 49.4618 41.019 49.399C41.3237 48.9305 41.6188 48.4572 41.9074 47.9775C42.3782 47.1918 42.828 46.3949 43.2553 45.5868C44.0711 45.6576 44.8853 45.7397 45.6996 45.8395C45.7592 45.846 45.8189 45.8588 45.8801 45.8685C46.2445 45.8942 46.6057 45.949 46.9652 46.0021C47.428 46.0697 47.8907 46.1438 48.3519 46.2211C48.9742 46.3257 49.5966 46.4416 50.2141 46.5752C50.5478 46.6477 50.88 46.7217 51.2137 46.7942C51.217 46.7942 51.2218 46.7942 51.225 46.7958C51.2282 46.7958 51.2315 46.7958 51.2363 46.7974C51.2573 46.8006 51.2815 46.8006 51.304 46.8038C51.333 46.8071 51.3621 46.8151 51.3846 46.8393C52.0973 47.0212 52.8083 47.2128 53.5065 47.443C53.571 47.4639 53.6451 47.4703 53.6951 47.5251C53.8773 47.5573 54.0434 47.6329 54.2143 47.6957C54.3642 47.7505 54.5142 47.8084 54.6625 47.868C55.0866 48.0354 55.5025 48.2206 55.9056 48.4347C56.0652 48.5184 56.2216 48.6069 56.3764 48.7003C56.5812 48.8243 56.7811 48.9547 56.9681 49.1044C57.023 49.1479 57.0391 49.1656 57.0181 49.1913L57.0214 49.1897Z" fill="#156731"/>
<path fill-rule="evenodd" clip-rule="evenodd" d="M61.4666 37.5855C61.4473 37.2007 61.3006 36.861 61.0764 36.5519C60.7604 36.1124 60.3525 35.7695 59.9107 35.4669C59.1578 34.9517 58.3339 34.5734 57.4906 34.2353C57.0214 34.0469 56.5458 33.8795 56.0653 33.7249C55.3333 33.4899 54.59 33.2887 53.8435 33.1051C52.91 32.8765 51.9716 32.6785 51.0268 32.5062C50.4512 32.4016 49.874 32.3002 49.2951 32.2165C49.2774 32.2165 49.2597 32.2149 49.2419 32.2132C49.2323 32.2132 49.221 32.2116 49.2113 32.21C49.1903 32.2084 49.1678 32.2052 49.1468 32.2036C49.0984 32.1971 49.0484 32.1875 49.0017 32.1762C48.8292 32.1489 48.6583 32.1215 48.4857 32.0925C48.3858 32.078 48.2858 32.0635 48.1859 32.0506C48.1472 32.0442 48.1085 32.0394 48.0698 32.0345C47.6715 31.9862 47.2717 31.9396 46.8734 31.888C46.7573 31.8736 46.6412 31.8639 46.5252 31.851C46.4091 31.8397 46.293 31.8253 46.1785 31.8027C45.4046 31.7303 44.6307 31.653 43.8551 31.5902C43.7471 31.5822 43.6391 31.5725 43.531 31.5645C42.8635 31.5113 42.196 31.4663 41.5269 31.4341C41.2061 31.4196 40.8836 31.4019 40.5611 31.3858C40.3177 31.3745 40.0726 31.3616 39.8291 31.3519C39.2713 31.331 38.715 31.3181 38.1571 31.3069C37.9492 31.302 37.7412 31.2988 37.5348 31.2956C37.1849 31.2892 37.5348 31.2956 37.5348 31.2956C37.5348 31.2956 37.9169 29.7597 38.0701 28.9838C38.1862 28.4026 38.2861 27.8182 38.3748 27.2322C38.4329 26.8394 38.4845 26.4466 38.5296 26.0521C38.5764 25.64 38.6134 25.2263 38.6392 24.8109C38.6666 24.3682 38.6844 23.9238 38.6941 23.4811C38.7053 22.8871 38.686 22.2946 38.6425 21.7022C38.6134 21.311 38.5764 20.9214 38.5264 20.5318C38.4587 19.9989 38.3619 19.4724 38.2345 18.9508C38.133 18.5339 38.0169 18.1185 37.8621 17.716C37.854 17.716 37.846 17.716 37.8379 17.7193C37.8298 17.7193 37.8218 17.7225 37.8153 17.7241C37.7895 17.7321 37.767 17.745 37.7428 17.7547C37.0656 18.038 36.4255 18.3906 35.808 18.7834C35.7725 18.8059 35.7338 18.8237 35.7193 18.8671C35.8676 19.8025 35.937 20.7427 35.945 21.6893C35.9579 23.0432 35.858 24.3891 35.6725 25.7302C35.5323 26.7396 35.3469 27.7409 35.1211 28.7358C34.926 29.5988 34.7003 30.4536 34.4488 31.3004C33.8409 31.3069 33.2315 31.3262 32.6236 31.3455C31.8142 31.3729 31.0048 31.4099 30.1971 31.4614C29.4844 31.5065 28.7702 31.5532 28.0575 31.6144C27.132 31.6949 26.2082 31.785 25.2875 31.8977C25.0666 32.3549 24.8522 32.8154 24.6458 33.279C24.3379 33.9713 24.0476 34.67 23.7751 35.3751C23.788 35.3735 23.7993 35.3719 23.8122 35.3703C24.8877 35.2189 25.9679 35.0934 27.0482 34.9855C27.3577 34.9549 27.6673 34.9179 27.9785 34.8905C28.746 34.8261 29.515 34.7827 30.2841 34.7344C31.2838 34.67 32.285 34.6297 33.2879 34.6007H33.325C34.1779 34.5766 35.0308 34.5653 35.8854 34.5637C36.0998 34.5637 36.3143 34.5637 36.5303 34.5653C37.0172 34.5669 37.5058 34.5718 37.9927 34.5798C38.5457 34.5895 39.0971 34.6104 39.6502 34.6297H39.6647C40.1935 34.649 40.7224 34.6684 41.2512 34.6941C41.6575 34.7134 42.0638 34.7424 42.4701 34.773C42.5572 34.7794 42.6443 34.7859 42.7313 34.7923C43.3408 34.8358 43.9486 34.8809 44.5581 34.9276C44.7081 34.9388 44.8564 34.9597 45.0063 34.9742C45.8125 35.0451 46.6171 35.1352 47.42 35.2383C47.7795 35.2833 48.1375 35.3316 48.497 35.3799C49.2532 35.4846 50.0078 35.6102 50.7591 35.7406C51.4831 35.8677 52.2054 36.011 52.9213 36.1736C53.5517 36.3169 54.1789 36.4731 54.8012 36.6421C55.6187 36.8643 56.4216 37.1235 57.2149 37.4165C57.9001 37.6708 58.5628 37.9703 59.2045 38.3196C59.6463 38.5611 60.0655 38.8316 60.4476 39.16C60.7943 39.4578 61.0974 39.7927 61.2989 40.2113C61.3796 40.3771 61.4166 40.5558 61.4682 40.7297C61.4699 40.3835 61.4731 40.0374 61.4747 39.6913V38.149C61.4747 37.9622 61.4811 37.7739 61.4715 37.5887L61.4666 37.5855Z" fill="#004646"/>
<path fill-rule="evenodd" clip-rule="evenodd" d="M41.1125 13.028C40.9884 12.9877 40.861 12.9588 40.7417 12.9024C40.7417 12.8863 40.7433 12.8702 40.7449 12.8541C40.8933 12.8992 41.0335 12.962 41.1641 13.0457C41.1464 13.0393 41.1287 13.0344 41.1109 13.028H41.1125Z" fill="black"/>
<path fill-rule="evenodd" clip-rule="evenodd" d="M40.7353 12.8445C39.9388 12.4903 39.1407 12.1377 38.3442 11.7819C38.312 11.7674 38.2797 11.7787 38.2507 11.761C38.2233 11.7674 38.1943 11.7739 38.183 11.7385C38.1507 11.7529 38.1201 11.7385 38.0895 11.7272C37.3913 11.5179 36.677 11.4535 35.9499 11.4905C34.9873 11.5404 34.0651 11.7755 33.1686 12.1216C32.8865 12.2295 32.6091 12.3486 32.3383 12.4758C32.2705 12.508 32.2028 12.5402 32.1351 12.574C32.0561 12.6126 31.9771 12.6513 31.8997 12.6931C31.7949 12.7463 31.6917 12.801 31.5869 12.8573C31.0436 13.1536 30.5163 13.4836 30.0052 13.8378C29.8988 13.9118 29.7924 13.9859 29.6876 14.0615L29.6247 14.1066C29.3732 14.2902 29.1265 14.4769 28.8846 14.6701C28.2784 15.1515 27.6964 15.6634 27.1337 16.1995C25.5713 17.6887 24.1831 19.3324 22.9126 21.0743C22.8803 21.1194 22.8481 21.1661 22.8158 21.2111C22.7836 21.2562 22.8126 21.2224 22.8094 21.2256C22.8062 21.2289 22.8013 21.2305 22.7949 21.2321C22.6804 21.3947 22.5675 21.5557 22.4531 21.7183C22.2628 21.9887 22.0758 22.2592 21.892 22.5345C21.7178 22.7953 21.5453 23.0593 21.376 23.3233C21.2406 23.5326 21.1084 23.7435 20.9778 23.956C20.8617 24.146 20.7456 24.3344 20.6311 24.5243C20.4699 24.7932 20.3103 25.0637 20.1523 25.3373C20.0733 25.4742 19.9959 25.6094 19.9185 25.7479C19.9104 25.764 19.8991 25.7785 19.8894 25.7946C19.8894 25.8123 19.883 25.8267 19.8766 25.8412C19.8701 25.8509 19.8637 25.8622 19.8588 25.8718C19.7863 26.0006 19.7153 26.131 19.6444 26.2614C19.3767 26.7492 19.1155 27.2419 18.864 27.7377C18.7576 27.947 18.6528 28.1579 18.5496 28.3688C17.9917 29.5086 17.4742 30.6661 16.9985 31.8398C16.7454 32.4628 16.5052 33.0907 16.2762 33.7217C16.1553 34.0566 16.036 34.3931 15.9215 34.7311C15.7103 35.3558 15.5168 35.9853 15.3282 36.6163C15.2508 36.8755 15.175 37.1363 15.1024 37.3972C15.1008 37.4036 15.0992 37.41 15.0976 37.4165C14.9831 37.8254 14.8767 38.2359 14.7767 38.6481C14.6848 39.0183 14.5962 39.3902 14.5139 39.7637C14.443 40.0825 14.3785 40.4028 14.314 40.7232C14.2995 40.7989 14.285 40.8746 14.2705 40.9518C14.264 40.9824 14.2592 41.013 14.2527 41.0436C14.2511 41.0549 14.2479 41.0661 14.2463 41.079C14.235 41.1402 14.2221 41.1998 14.2108 41.2609C14.1189 41.7616 14.0367 42.2639 13.9657 42.7694C13.8964 43.2572 13.8351 43.7434 13.7835 44.2328C13.7723 44.3423 13.7626 44.4518 13.7513 44.5612C13.7513 44.5693 13.7497 44.5773 13.7497 44.5854C13.7416 44.6691 13.7368 44.7287 13.7303 44.7882C13.7078 45.0603 13.6884 45.334 13.6723 45.6061C13.6562 45.8798 13.6433 46.1534 13.6352 46.4271C13.6352 46.4625 13.6352 46.498 13.632 46.5334C13.6159 47.0598 13.6126 47.5846 13.6288 48.1095C13.6449 48.6053 13.6723 49.0996 13.7191 49.5938C13.7642 50.0864 13.8271 50.5775 13.9125 51.0685C13.9545 51.3084 13.9996 51.5466 14.0512 51.7833C14.2221 52.5818 14.4527 53.3642 14.7687 54.1209C14.7913 54.174 14.8122 54.2255 14.8364 54.2786C14.859 54.3302 14.8832 54.3833 14.9057 54.4348C14.9606 54.5572 15.0186 54.6779 15.0783 54.797C15.1782 54.9967 15.2846 55.1915 15.3975 55.3814C15.7071 55.903 16.0714 56.3876 16.5036 56.8255C16.6164 56.9414 16.7341 57.0509 16.855 57.1555C17.0824 57.3536 17.3242 57.5355 17.5822 57.6981C17.6306 57.7287 17.687 57.7464 17.7225 57.7931C17.7273 57.7995 17.7321 57.8076 17.7354 57.8156C17.7596 57.8108 17.7773 57.8156 17.7837 57.8414C17.8837 57.8655 17.9643 57.9331 18.0562 57.9734C18.5464 58.1907 19.0349 58.4081 19.5251 58.6254C19.804 58.7494 20.0845 58.8701 20.3651 58.9924L20.4006 58.9602C20.3103 58.9039 20.2168 58.8508 20.1297 58.7912C20.0378 58.7284 19.9507 58.6624 19.8637 58.5948C19.1333 58.0281 18.5609 57.3214 18.0917 56.5212C17.8063 56.035 17.5741 55.5247 17.3742 54.9999C17.3694 54.987 17.3645 54.9757 17.3597 54.9628C17.0921 54.2529 16.897 53.522 16.7502 52.7782C16.6712 52.3806 16.6084 51.9797 16.5535 51.5772C16.5503 51.5482 16.5455 51.5209 16.5422 51.4919C16.5165 51.2939 16.4939 51.0942 16.4729 50.8962C16.4423 50.6032 16.4197 50.3118 16.4036 50.0172C16.4004 49.9448 16.3955 49.8723 16.3923 49.7999C16.3923 49.7822 16.3907 49.7628 16.3891 49.7451C16.3746 49.3394 16.3601 48.9337 16.3617 48.5281V48.462C16.3617 48.3896 16.3617 48.3172 16.3649 48.2447C16.3746 47.9259 16.3842 47.6088 16.3971 47.2916C16.4036 47.1323 16.4116 46.9745 16.4213 46.8151C16.431 46.6557 16.4407 46.498 16.452 46.3386C16.4939 45.7832 16.5503 45.231 16.618 44.6788C16.6422 44.4775 16.668 44.2779 16.697 44.0767C16.7277 43.8529 16.7615 43.6291 16.797 43.4069C16.8244 43.2315 16.8534 43.056 16.8841 42.8805C16.9179 42.6809 16.955 42.4828 16.9921 42.2832C17.0388 42.0321 17.0888 41.7825 17.1404 41.5314C17.2001 41.2464 17.2613 40.9599 17.3258 40.6765C17.3839 40.4238 17.4435 40.171 17.5064 39.9183C17.5758 39.6398 17.6467 39.3612 17.7209 39.0843C17.7386 39.0199 17.7579 38.9555 17.7773 38.8911C17.7966 38.8267 17.816 38.7624 17.8321 38.698C17.866 38.5627 17.8934 38.4275 17.9418 38.2955C17.953 38.281 17.9708 38.2665 17.9724 38.2504C18.0111 37.9316 18.1256 37.6338 18.2239 37.3344C18.2674 37.2007 18.3094 37.0655 18.3513 36.9303C18.4093 36.7419 18.4674 36.5536 18.527 36.3652C18.5754 36.2106 18.6254 36.0561 18.6786 35.9032C18.6995 35.8436 18.7189 35.7824 18.7399 35.7212C18.7673 35.644 18.7947 35.5667 18.8221 35.4894C18.9382 35.1674 19.051 34.8438 19.1687 34.5219C19.2171 34.3898 19.2671 34.2562 19.3171 34.1242C19.4896 33.6718 19.6669 33.2227 19.8508 32.7767C19.9023 32.6495 19.9556 32.524 20.0088 32.3984C20.0523 32.297 20.0942 32.1972 20.1361 32.0957C20.2393 31.8575 20.3441 31.6192 20.4489 31.3809C20.5312 31.1942 20.615 31.009 20.7005 30.8223C20.7649 30.679 20.8311 30.5389 20.8972 30.3957C21.0745 30.0157 21.2551 29.639 21.4437 29.2639C21.476 29.1979 21.5147 29.1351 21.5518 29.0723C21.5888 29.0095 21.6259 28.9451 21.6582 28.8775C22.2064 27.7168 22.8497 26.6076 23.5124 25.5096C23.572 25.4114 23.6301 25.3132 23.6897 25.215C23.8284 24.9864 23.9606 24.7545 24.117 24.5404C24.2153 24.4068 24.3056 24.2716 24.3959 24.1331C24.4862 23.9963 24.5749 23.8578 24.6668 23.7226C24.8538 23.4521 25.028 23.172 25.2134 22.8999C25.2376 22.8645 25.2617 22.8291 25.2859 22.7937C25.4101 22.615 25.5391 22.4395 25.6648 22.2624V22.2576V22.2528C25.6648 22.2528 25.6745 22.2431 25.6793 22.2399C25.6826 22.2399 25.6858 22.2367 25.689 22.2367C25.8712 21.9919 26.0534 21.7456 26.2356 21.5009C26.2436 21.4897 26.2533 21.48 26.2614 21.4703C26.2662 21.4655 26.2694 21.4607 26.2727 21.4575C26.284 21.4446 26.2952 21.4333 26.3065 21.4204V21.4043C26.3065 21.3995 26.3065 21.3947 26.3081 21.3915C26.3114 21.3818 26.3146 21.3754 26.3194 21.3689C26.3243 21.3625 26.3323 21.3576 26.3388 21.3512C26.3468 21.3464 26.3549 21.3415 26.363 21.3367C26.3678 21.3319 26.371 21.3271 26.3742 21.3222C26.4452 21.2337 26.5177 21.1451 26.5887 21.0566C26.5967 21.0469 26.6048 21.0357 26.6129 21.026C26.6129 21.0196 26.6161 21.0147 26.6193 21.0083C26.6209 21.0035 26.6242 20.997 26.6274 20.9922C26.6338 20.9825 26.6419 20.9729 26.65 20.9648C26.65 20.9632 26.6532 20.9616 26.6548 20.96C26.6854 20.931 26.7241 20.9069 26.7322 20.8634V20.8554C26.7322 20.8473 26.7386 20.8409 26.7451 20.8376C26.7483 20.8376 26.7515 20.836 26.7548 20.8344C26.7757 20.8183 26.7951 20.8022 26.8112 20.7829C26.816 20.7781 26.8193 20.7732 26.8225 20.77C26.8354 20.7555 26.8467 20.7394 26.8579 20.7233C26.8725 20.7024 26.887 20.6799 26.9015 20.6573C26.9128 20.6412 26.9241 20.6235 26.9353 20.6074C26.9434 20.5962 26.9515 20.5849 26.9595 20.5752C27.0143 20.5076 27.0708 20.44 27.1256 20.374C27.5126 19.9023 27.9108 19.4419 28.3203 18.9911C28.6412 18.6369 28.9733 18.294 29.3087 17.9543C29.3667 17.8947 29.4264 17.8352 29.4844 17.7772C29.5941 17.6677 29.7085 17.5663 29.8214 17.4617C29.8666 17.4198 29.9117 17.3796 29.9552 17.3361C29.9649 17.328 29.973 17.3184 29.9826 17.3103C30.1229 17.1751 30.2664 17.0399 30.4083 16.9063C30.4115 16.903 30.4148 16.9014 30.418 16.8982C30.4551 16.8644 30.497 16.8338 30.5357 16.8032C30.5454 16.7952 30.5534 16.7871 30.5631 16.7775C30.5663 16.7742 30.5679 16.7726 30.5711 16.7694C30.6147 16.7243 30.6598 16.6809 30.7034 16.6358C30.7098 16.6261 30.7163 16.6197 30.7243 16.6149C30.7324 16.61 30.7421 16.6068 30.7533 16.6068C30.7662 16.6052 30.7775 16.5988 30.7872 16.5923C30.7936 16.5875 30.8001 16.5811 30.8065 16.5746C30.8114 16.5698 30.8146 16.5633 30.8194 16.5569C30.8275 16.5472 30.8372 16.536 30.8452 16.5263C30.9597 16.4249 31.0742 16.3251 31.1919 16.2269C31.2096 16.2124 31.2274 16.1979 31.2451 16.1818C31.358 16.0868 31.4724 15.9934 31.5885 15.9001C31.8481 15.6924 32.1158 15.4911 32.3882 15.3012C32.3979 15.2963 32.406 15.2915 32.4157 15.2867H32.4173C32.4253 15.2754 32.435 15.2658 32.4447 15.2577C32.5059 15.2126 32.5688 15.1659 32.6301 15.1225C32.7542 15.0323 32.8816 14.9454 33.0074 14.8601C33.0703 14.8182 33.1348 14.7747 33.1992 14.7345C33.2637 14.6926 33.3282 14.6508 33.3927 14.6105C33.5878 14.4882 33.7845 14.369 33.9845 14.2547C34.2021 14.1292 34.4246 14.0084 34.6471 13.8925C35.3179 13.548 36.0112 13.2566 36.7367 13.0409C36.7915 13.0248 36.848 13.0087 36.9028 12.9926C37.2897 12.8847 37.6783 12.8026 38.0733 12.7495C38.2974 12.7189 38.5248 12.698 38.7521 12.6883C38.923 12.6802 39.0939 12.6786 39.2665 12.6835C39.3245 12.6851 39.3809 12.6867 39.439 12.6899C39.6115 12.6996 39.7824 12.7173 39.9533 12.7414C40.1903 12.7736 40.4241 12.8187 40.6579 12.8783C40.6643 12.8767 40.6692 12.875 40.6756 12.8783C40.6821 12.8783 40.6869 12.8831 40.6901 12.8879C40.695 12.8895 40.7014 12.8911 40.7063 12.8928C40.7176 12.896 40.7272 12.8992 40.7385 12.904C40.7385 12.8879 40.7401 12.8718 40.7417 12.8557C40.7385 12.8525 40.7353 12.8493 40.7305 12.8477L40.7353 12.8445Z" fill="#F1ECE2"/>
<path fill-rule="evenodd" clip-rule="evenodd" d="M38.1843 11.7368C38.1731 11.6869 38.1247 11.6821 38.0892 11.666C37.4024 11.3617 36.7155 11.0558 36.0254 10.7548C35.8416 10.6743 35.6643 10.5809 35.474 10.5165C35.453 10.5294 35.4305 10.5278 35.4079 10.5197C34.9355 10.3652 34.4453 10.2879 33.952 10.2573C33.4989 10.23 33.0442 10.2573 32.5944 10.3169C32.2235 10.3668 31.8592 10.4441 31.498 10.5407C30.7966 10.729 30.1227 10.985 29.4729 11.3054C29.223 11.4293 28.9811 11.5694 28.7345 11.6998C28.6522 11.7433 28.5668 11.7819 28.4878 11.8286C27.7816 12.2488 27.0963 12.7012 26.4466 13.2051C26.2837 13.3306 26.1176 13.453 25.9661 13.5898C25.8677 13.6784 25.7726 13.7685 25.6662 13.8458C25.6468 13.8603 25.6259 13.8748 25.6017 13.8893C25.584 13.9054 25.5662 13.9199 25.5485 13.9344V13.9376C25.5404 13.9585 25.5324 13.9778 25.5195 13.9891C25.5114 13.9955 25.5033 13.9988 25.4937 14.0004H25.4776H25.4743C25.4743 14.0004 25.4647 13.9971 25.4582 13.9955C25.4534 13.9988 25.4485 14.002 25.4453 14.0052C25.3889 14.0454 25.3582 14.1147 25.3066 14.1549C25.2986 14.1614 25.2905 14.1662 25.2825 14.171C25.147 14.2419 25.0648 14.369 24.9439 14.456C24.8278 14.5397 24.731 14.6508 24.6246 14.749C24.0974 15.2336 23.5992 15.7471 23.1058 16.2655C22.9543 16.4249 22.8188 16.5955 22.6737 16.7614C22.5899 16.8563 22.4964 16.9401 22.4141 17.0334C22.19 17.2894 21.9723 17.5518 21.7515 17.8094C21.587 18.001 21.4322 18.199 21.2855 18.4035C21.1694 18.5661 21.0307 18.711 20.9066 18.8671C20.5309 19.3485 20.1746 19.8443 19.8183 20.3386C19.4668 20.8264 19.1443 21.3335 18.8106 21.8342C18.5107 22.2833 18.235 22.7486 17.9496 23.209C17.8448 23.3797 17.7513 23.5568 17.6448 23.7274C17.4627 24.0204 17.2934 24.3215 17.1337 24.6274C17.0338 24.7465 16.9741 24.8914 16.8983 25.025C16.7403 25.3051 16.5888 25.5885 16.4517 25.8799C16.4082 25.9732 16.3453 26.0521 16.3002 26.1455C16.1728 26.4047 16.0438 26.6639 15.91 26.9215C15.5762 27.5687 15.2828 28.2336 14.978 28.8952C14.6475 29.61 14.3541 30.3425 14.0639 31.075C13.8672 31.5725 13.6688 32.07 13.5124 32.5819C13.4866 32.6656 13.4383 32.7413 13.4092 32.8234C13.2577 33.2645 13.1061 33.704 12.9626 34.1467C12.8288 34.5541 12.703 34.9646 12.5821 35.3751C12.466 35.7711 12.3548 36.1672 12.2484 36.5648C12.0404 37.336 11.8501 38.1119 11.6873 38.8927C11.6454 39.1004 11.6034 39.3081 11.5631 39.5158C11.4245 40.2225 11.3019 40.9341 11.202 41.6489C11.1085 42.3283 11.0311 43.0093 10.9698 43.6919C10.965 43.7547 10.9601 43.8175 10.9553 43.8802C10.9263 44.2537 10.9037 44.6288 10.8892 45.0056C10.8714 45.4354 10.8682 45.8653 10.865 46.2951C10.865 46.4996 10.886 46.7056 10.8843 46.9117C10.8811 47.2256 10.9085 47.538 10.9263 47.8503C10.9327 47.9646 10.9375 48.0805 10.9488 48.1964C10.9504 48.2157 10.9537 48.2366 10.9553 48.256C10.9924 48.557 11.0165 48.8597 11.0585 49.1591C11.0988 49.4505 11.1391 49.7419 11.1923 50.0301C11.2697 50.4326 11.3422 50.835 11.4664 51.2262C11.5051 51.3486 11.526 51.4774 11.5615 51.603C11.6357 51.8767 11.7244 52.1471 11.8211 52.4128C11.9614 52.7943 12.1226 53.1678 12.2967 53.5349C12.566 54.0983 12.8998 54.6232 13.2915 55.1093C13.6624 55.5714 14.0864 55.9787 14.5717 56.32C14.5911 56.3345 14.612 56.3474 14.633 56.3602C14.6685 56.3828 14.704 56.4053 14.7394 56.4279C14.7588 56.4407 14.7797 56.4536 14.8007 56.4665C14.8684 56.5084 14.9345 56.5518 14.999 56.5985C14.999 56.5985 15.0006 56.5985 15.0022 56.6001C15.0216 56.6146 15.0409 56.6291 15.0603 56.6452C15.0603 56.6484 15.0635 56.6516 15.0651 56.6549C15.0764 56.671 15.099 56.6726 15.1167 56.6806C15.9551 57.0509 16.7919 57.4212 17.6303 57.7915C17.6642 57.8059 17.6964 57.8285 17.7367 57.8188C17.7319 57.8108 17.7287 57.8043 17.7238 57.7963C17.6884 57.7496 17.6319 57.7319 17.5836 57.7013C17.3272 57.5387 17.0838 57.3568 16.8564 57.1588C16.7355 57.0541 16.6178 56.943 16.5049 56.8287C16.0728 56.3908 15.7084 55.9046 15.3989 55.3846C15.286 55.1947 15.1796 54.9999 15.0796 54.8002C15.02 54.6811 14.9619 54.5604 14.9071 54.438C14.8829 54.3849 14.8603 54.3334 14.8378 54.2802C14.8152 54.2271 14.7926 54.1756 14.7701 54.1225C14.454 53.3658 14.2251 52.5834 14.0526 51.7849C14.001 51.5482 13.9558 51.31 13.9139 51.0701C13.8301 50.5807 13.7672 50.0897 13.7204 49.5954C13.6737 49.1028 13.6463 48.6069 13.6301 48.1111C13.614 47.5862 13.6172 47.0598 13.6334 46.535C13.635 46.4996 13.635 46.4641 13.6366 46.4287C13.6463 46.155 13.6592 45.8814 13.6737 45.6077C13.6898 45.3356 13.7091 45.0619 13.7317 44.7898C13.7366 44.7303 13.743 44.6707 13.7511 44.587C13.7511 44.5789 13.7527 44.5709 13.7527 44.5628C13.7624 44.4534 13.772 44.3439 13.7849 44.2344C13.8349 43.745 13.8978 43.2572 13.9671 42.771C14.0397 42.2655 14.1219 41.7632 14.2122 41.2625C14.2235 41.2014 14.2364 41.1418 14.2477 41.0806C14.2493 41.0693 14.2525 41.0581 14.2541 41.0452C14.2606 41.0146 14.2654 40.984 14.2718 40.9534C14.2864 40.8762 14.3009 40.8005 14.3154 40.7248C14.3783 40.4045 14.4444 40.0841 14.5153 39.7653C14.5975 39.3918 14.6862 39.0199 14.7781 38.6497C14.8797 38.2375 14.9861 37.827 15.099 37.4181C15.099 37.4116 15.1022 37.4052 15.1038 37.3988C15.1764 37.1379 15.2521 36.8771 15.3295 36.618C15.5182 35.9869 15.7133 35.3574 15.9229 34.7327C16.0373 34.3947 16.1567 34.0582 16.2776 33.7233C16.5065 33.0906 16.7468 32.4628 16.9999 31.8414C17.4756 30.6677 17.9915 29.5102 18.551 28.3704C18.6542 28.1595 18.759 27.9486 18.8654 27.7393C19.1169 27.2435 19.3781 26.7508 19.6457 26.263C19.7167 26.1326 19.7892 26.0022 19.8602 25.8734C19.8666 25.8638 19.8731 25.8525 19.8779 25.8428C19.886 25.8284 19.8924 25.8139 19.8908 25.7962C19.9005 25.7801 19.9118 25.764 19.9198 25.7495C19.9972 25.6126 20.0746 25.4758 20.1536 25.3389C20.3116 25.0669 20.4697 24.7964 20.6325 24.5259C20.747 24.336 20.8631 24.146 20.9791 23.9576C21.1097 23.7451 21.242 23.5342 21.3774 23.325C21.5467 23.0609 21.7192 22.7969 21.8933 22.5361C22.0771 22.2608 22.2642 21.9903 22.4544 21.7199C22.5673 21.5573 22.6818 21.3963 22.7962 21.2337V21.224C22.7962 21.2224 22.7979 21.2192 22.7995 21.2176C22.8027 21.2128 22.8091 21.2111 22.8156 21.2111C22.8478 21.1661 22.8785 21.1194 22.9123 21.0743C24.1829 19.3324 25.5711 17.6903 27.1334 16.1995C27.6961 15.6634 28.2766 15.1515 28.8844 14.6701C29.1263 14.4769 29.3729 14.2902 29.6245 14.1066L29.6873 14.0615C29.7922 13.9859 29.8986 13.9118 30.005 13.8378C30.5177 13.4836 31.0433 13.1536 31.5867 12.8573C31.6899 12.801 31.7947 12.7463 31.8995 12.6931C31.9785 12.6529 32.0559 12.6126 32.1349 12.574C32.2026 12.5402 32.2703 12.508 32.338 12.4758C32.6105 12.3486 32.8862 12.2295 33.1684 12.1216C34.0648 11.7771 34.9871 11.542 35.9496 11.4905C36.6752 11.4519 37.3895 11.5163 38.0892 11.7272C38.1198 11.7368 38.1505 11.7513 38.1827 11.7384C38.1827 11.7368 38.215 11.7256 38.1827 11.7384L38.1843 11.7368Z" fill="#00BBBB"/>
<path fill-rule="evenodd" clip-rule="evenodd" d="M35.3226 10.4505C34.6986 10.172 34.073 9.90155 33.4523 9.61982C32.7412 9.29623 32.0028 9.0966 31.2208 9.05957C31.0241 9.05957 30.8258 9.05957 30.6291 9.06118H30.3985C30.0051 9.08211 29.6165 9.14007 29.2312 9.22217C28.0945 9.46366 27.0368 9.90799 26.0226 10.465C25.002 11.0253 24.054 11.695 23.1527 12.4291C23.0382 12.5225 22.9141 12.6078 22.8141 12.7205C22.806 12.7237 22.798 12.7302 22.7931 12.7382V12.7479H22.7883H22.7835C22.7577 12.7688 22.7319 12.7881 22.7061 12.809C21.708 13.6623 20.781 14.588 19.9038 15.5652C18.8623 16.7276 17.9013 17.9543 17.0033 19.2294C15.665 21.129 14.48 23.1221 13.4239 25.1908C12.7112 26.585 12.0631 28.0098 11.4794 29.4635C10.8716 30.9801 10.3137 32.5159 9.86546 34.0888C9.81548 34.2627 9.75421 34.4349 9.70423 34.6088C9.33662 35.9048 9.01899 37.212 8.76908 38.5354C8.55625 39.6575 8.38695 40.7844 8.2757 41.921C8.19348 42.7453 8.13704 43.5712 8.14027 44.4003C8.14027 44.777 8.14188 45.1537 8.14349 45.5304C8.14833 45.5819 8.14994 45.6334 8.15155 45.685C8.15317 45.7655 8.15155 45.8443 8.14833 45.9248C8.15155 46.3837 8.19025 46.8393 8.23378 47.2965C8.30634 48.0419 8.4192 48.7792 8.58527 49.5085C8.79165 50.4229 9.07381 51.31 9.47528 52.1584C9.90577 53.0664 10.4524 53.8923 11.1908 54.5829C11.6213 54.9854 12.0953 55.3251 12.629 55.5746C13.103 55.7968 13.5835 56.0045 14.064 56.2154C14.3929 56.3603 14.7186 56.5164 15.0539 56.6452C15.0346 56.6307 15.0153 56.6146 14.9959 56.6001C14.9959 56.6001 14.9943 56.6001 14.9927 56.5985C14.9282 56.5518 14.8621 56.5084 14.7944 56.4665C14.7734 56.4536 14.7541 56.4407 14.7331 56.4279C14.6976 56.4053 14.6622 56.3844 14.6267 56.3603C14.6057 56.3474 14.5864 56.3329 14.5654 56.32C14.0801 55.9771 13.6577 55.5714 13.2852 55.1094C12.8934 54.6232 12.5597 54.0983 12.2904 53.5349C12.1147 53.1678 11.9534 52.7943 11.8148 52.4128C11.7777 52.379 11.7422 52.3435 11.7067 52.3081C11.7422 52.3435 11.7777 52.379 11.8148 52.4128C11.718 52.1471 11.6294 51.8767 11.5552 51.603C11.5213 51.479 11.4988 51.3502 11.4601 51.2263C11.3359 50.8351 11.2617 50.4326 11.186 50.0301C11.1311 49.7419 11.0924 49.4505 11.0521 49.1591C11.0102 48.8597 10.9844 48.557 10.949 48.256C10.9473 48.2367 10.9441 48.2157 10.9425 48.1964V49.3507V48.1964C10.9312 48.0821 10.9264 47.9662 10.9199 47.8503C10.9038 47.538 10.8764 47.2256 10.878 46.9117C10.878 46.7073 10.857 46.5012 10.8587 46.2951C10.8619 45.8653 10.8667 45.4354 10.8828 45.0056C10.8974 44.6305 10.9199 44.2554 10.949 43.8803C10.9538 43.8175 10.9586 43.7547 10.9635 43.6919C11.0247 43.0093 11.1021 42.3283 11.1956 41.6489C11.2956 40.9341 11.4181 40.2225 11.5568 39.5158C11.5971 39.3081 11.639 39.1004 11.6809 38.8928C11.8422 38.1103 12.034 37.336 12.242 36.5648C12.3485 36.1672 12.4597 35.7695 12.5758 35.3751C12.6967 34.963 12.8225 34.5541 12.9563 34.1468C13.1014 33.704 13.253 33.2629 13.4029 32.8234C13.4303 32.7397 13.4803 32.664 13.5061 32.5819C13.6641 32.07 13.8608 31.5725 14.0575 31.0751C14.3477 30.3425 14.6412 29.6116 14.9717 28.8952C15.2764 28.2352 15.5699 27.5687 15.9036 26.9215C16.0359 26.6639 16.1665 26.4047 16.2938 26.1455C16.339 26.0537 16.4035 25.9733 16.4454 25.8799C16.5824 25.5885 16.734 25.3051 16.892 25.025C16.9678 24.8914 17.0274 24.7465 17.1274 24.6274C17.287 24.3215 17.4563 24.0204 17.6385 23.7274C17.7449 23.5584 17.8384 23.3797 17.9432 23.209C18.227 22.7486 18.5027 22.285 18.8042 21.8342C19.138 21.3335 19.4605 20.8264 19.8119 20.3386C20.1683 19.8443 20.5246 19.3485 20.9003 18.8671C21.0228 18.7094 21.1615 18.5661 21.2792 18.4035C21.4259 18.199 21.5807 18.001 21.7451 17.8094C21.966 17.5502 22.1837 17.2878 22.4078 17.0334C22.49 16.9401 22.5835 16.8564 22.6674 16.7614C22.8125 16.5972 22.9479 16.4249 23.0995 16.2655C23.5929 15.7471 24.0911 15.2336 24.6183 14.749C24.7247 14.6508 24.8215 14.5397 24.9375 14.456C25.0585 14.369 25.1391 14.2419 25.2761 14.171C25.2842 14.1662 25.2939 14.1614 25.3003 14.1549C25.3519 14.1147 25.3825 14.0455 25.439 14.0052C25.4438 14.002 25.4487 13.9988 25.4519 13.9955C25.4551 13.9762 25.4615 13.9601 25.4712 13.9505C25.4809 13.9392 25.4922 13.9328 25.5083 13.9311C25.518 13.9311 25.5309 13.9311 25.5438 13.9344C25.5615 13.9199 25.5792 13.9038 25.597 13.8893C25.6212 13.8732 25.6405 13.8603 25.6615 13.8458C25.7679 13.7685 25.863 13.68 25.9614 13.5898C26.1129 13.4514 26.2806 13.3307 26.4418 13.2051C27.0916 12.7012 27.7769 12.2488 28.4831 11.8286C28.5637 11.7819 28.6475 11.7433 28.7297 11.6998C28.9764 11.5678 29.2183 11.4277 29.4682 11.3054C30.118 10.985 30.7935 10.729 31.4933 10.5407C31.8544 10.4441 32.2188 10.3684 32.5897 10.3169C33.0395 10.2557 33.4942 10.23 33.9473 10.2573C34.4422 10.2879 34.9308 10.3652 35.4032 10.5198C35.4274 10.5278 35.4483 10.5294 35.4693 10.5165C35.429 10.4731 35.3677 10.4731 35.3177 10.4505H35.3226Z" fill="#004646"/>
<path opacity="0.48" fill-rule="evenodd" clip-rule="evenodd" d="M56.9971 49.2107C57.0777 49.1479 57.0777 49.1414 56.9971 49.0786C56.8101 48.9289 56.6101 48.7985 56.4054 48.6746C55.7217 48.2608 54.9913 47.9453 54.2432 47.6716C54.0723 47.6088 53.9062 47.5331 53.7241 47.5009C53.6741 47.4446 53.5999 47.4398 53.5354 47.4188C52.8373 47.187 52.1262 46.997 51.4136 46.8151C51.3539 46.8103 51.2959 46.7974 51.2443 46.7684C50.9105 46.696 50.5768 46.6219 50.2446 46.5495C49.6271 46.4159 49.0064 46.2999 48.384 46.1953C47.9229 46.118 47.4601 46.0456 46.9974 45.9764C46.6362 45.9232 46.2751 45.8685 45.9107 45.8427C45.851 45.8331 45.7914 45.8218 45.7301 45.8138C44.4548 45.6576 43.1778 45.5401 41.896 45.4515C41.0592 45.3952 40.2224 45.3501 39.384 45.3179C38.2892 45.276 37.1928 45.2567 36.0964 45.2567C34.7372 45.2567 33.3796 45.2905 32.0237 45.3565C30.4565 45.4322 28.8925 45.5513 27.3334 45.7252C27.0787 45.7542 26.8207 45.7703 26.5692 45.825C26.5176 45.8105 26.4676 45.825 26.416 45.8299C25.3051 45.9667 24.199 46.1357 23.0994 46.3434C22.4497 46.4658 21.8031 46.601 21.1614 46.7539L21.1485 46.7749C21.1485 46.7749 20.9824 49.1608 21.35 51.4903C21.9837 51.64 22.6206 51.7736 23.259 51.8928C23.8298 51.999 24.4022 52.1004 24.9778 52.1826C25.784 52.2985 26.5917 52.416 27.4027 52.4997C28.1912 52.5818 28.978 52.6671 29.768 52.7251C30.2356 52.7589 30.7016 52.7991 31.1691 52.8265C31.8608 52.8668 32.5541 52.9006 33.2458 52.9247C33.8779 52.9473 34.5099 52.965 35.1419 52.973C36.1529 52.9859 37.1654 52.9811 38.1763 52.9601C39.1502 52.9392 40.124 52.9022 41.0963 52.8474C42.2555 52.783 43.4132 52.6913 44.5692 52.5721C46.3315 52.3902 48.0841 52.1455 49.8206 51.7994C51.3378 51.4967 52.8373 51.1265 54.2916 50.592C54.9252 50.3601 55.546 50.0945 56.1361 49.7661C56.436 49.6003 56.7262 49.4199 56.9971 49.209V49.2107Z" fill="url(#paint0_linear_6_151)"/>
</g>
<defs>
<linearGradient id="paint0_linear_6_151" x1="39.1652" y1="46.1454" x2="39.155" y2="51.9221" gradientUnits="userSpaceOnUse">
<stop offset="0.16" stop-color="#191919"/>
<stop offset="0.97" stop-color="#191919" stop-opacity="0"/>
</linearGradient>
<clipPath id="clip0_6_151">
<rect width="70" height="70" fill="white"/>
</clipPath>
</defs>
</svg>
